<svg height="512" viewBox="0 0 192 192" width="512" xmlns="http://www.w3.org/2000/svg" xmlns:xlink="http://www.w3.org/1999/xlink"><linearGradient id="Blue_gradient" gradientUnits="userSpaceOnUse" x1="108.344" x2="171.658" y1="127.657" y2="64.343"><stop offset="0" stop-color="#34cdfa"/><stop offset="1" stop-color="#e8d9f1"/></linearGradient><path d="m80 64h-32v-8a8 8 0 0 0 -14.247-5l-32 40a8 8 0 0 0 0 10l32 40a8 8 0 0 0 14.247-5v-8h32a8 8 0 0 0 8-8v-48a8 8 0 0 0 -8-8z" fill="#99e6fd"/><path d="m190.247 91-32-40a8 8 0 0 0 -14.247 5v8h-32a8 8 0 0 0 -8 8v48a8 8 0 0 0 8 8h32v8a8 8 0 0 0 14.247 5l32-40a8 8 0 0 0 0-10z" fill="url(#Blue_gradient)"/></svg>